<?xml version="1.0" encoding="UTF-8"?>
<svg id="Layer_1" xmlns="http://www.w3.org/2000/svg" version="1.1" viewBox="0 0 324.11 55.05">
  <!-- Generator: Adobe Illustrator 30.2.1, SVG Export Plug-In . SVG Version: 2.1.1 Build 1)  -->
  <defs>
    <style>
      .st0 {
        fill: #231f20;
      }

      .st1 {
        fill: #c60651;
      }
    </style>
  </defs>
  <rect class="st0" x="1.09" y="37.54" width="314.65" height=".77"/>
  <path class="st1" d="M55.89,2.05l-.11.44c-2.01.16-3.8.54-5.36,1.15-1.19.45-2.78,1.27-4.79,2.47-1.11.66-2.44,2.1-4.01,4.3-1.07,1.49-2.74,4.1-5.03,7.86-2.28,3.75-3.58,6.49-3.88,8.22-.08.48-.06.91.06,1.31.13.4.36.6.71.6.62,0,1.42-.62,2.4-1.87.66-.85,1.09-1.5,1.31-1.95.07,0,.2-.03.39-.08-1.72,3-3.29,4.5-4.7,4.5-.85,0-1.47-.38-1.84-1.14s-.46-1.74-.25-2.94c.57-3.28,3.93-8.48,10.07-15.61-2.59,2-4.93,4.2-7.04,6.6-1.44,1.65-3.52,4.24-6.24,7.76-2.39,3.09-3.91,4.97-4.55,5.64-.08-.21-.11-.38-.08-.52.46-.93.92-1.86,1.39-2.78.27-.64.51-1.51.7-2.63.76-4.35,1.43-7.37,2-9.07.5-1.54,1.47-3.53,2.91-5.97-1.48,1.46-3.34,4.11-5.58,7.95-1.53,2.66-3.07,5.32-4.62,7.99-.91,1.39-2.29,2.57-4.14,3.56-1.85.98-3.66,1.48-5.43,1.48-2.61,0-4.72-.96-6.34-2.86-1.62-1.91-2.2-4.15-1.75-6.74.5-2.88,1.75-5.34,3.73-7.36,1.99-2.03,4.09-3.04,6.31-3.04,1.87,0,3.35.67,4.44,2.01,1.08,1.34,1.46,2.99,1.12,4.93-.34,1.97-1.3,3.72-2.86,5.24-1.56,1.53-3.1,2.29-4.6,2.29-1.32,0-2.26-.5-2.81-1.51s-.69-2.31-.41-3.9c.15-.85.58-2,1.3-3.46l.39.12c-.7,1.35-1.12,2.45-1.27,3.33-.26,1.48-.12,2.67.41,3.58.53.91,1.36,1.37,2.49,1.37,1.4,0,2.83-.71,4.29-2.14,1.46-1.43,2.35-3.07,2.67-4.92.32-1.82-.04-3.36-1.08-4.6-1.04-1.24-2.42-1.86-4.15-1.86-2.1,0-4.09.98-5.99,2.95-1.9,1.97-3.08,4.29-3.55,6.98-.37,2.13.06,4.09,1.28,5.9,1.44,2.15,3.61,3.23,6.49,3.23,3.3,0,6.76-2.79,10.38-8.36,3.46-5.31,5.84-8.83,7.14-10.56,2.05-2.73,3.86-4.59,5.44-5.58-3.34-1.38-5.37-2.07-6.11-2.07-3.14,0-5.47.98-6.99,2.94-.77.98-1.27,2.12-1.5,3.42-.22,1.27-.09,2.36.4,3.26.49.9,1.2,1.35,2.15,1.35.69,0,1.33-.28,1.91-.84h.21c-.95,1.22-1.87,1.83-2.74,1.83-1.15,0-2.03-.48-2.62-1.43-.59-.96-.77-2.15-.52-3.58.32-1.83,1.07-3.35,2.25-4.57,1.72-1.8,4.22-2.71,7.5-2.71.71,0,2.85.72,6.41,2.15.54-.32,1.02-.48,1.43-.48.48,0,.69.2.62.6-.08.45-.38.68-.91.68-.25,0-.47-.07-.66-.2-1.15,1.41-2.13,3.55-2.96,6.44-.22.74-.41,1.74-.58,3-.16,1.26-.36,2.27-.58,3.04-.24.85-.62,1.83-1.14,2.94-.39.8-.78,1.61-1.15,2.43,6.17-7.96,12.07-13.56,17.69-16.83,2.23-1.3,3.81-2.13,4.73-2.51,1.56-.61,3.49-.99,5.78-1.15l.02-.02Z"/>
  <path class="st1" d="M67.79,19.26l-6.22,6.45c-1.52,1.59-2.62,2.39-3.28,2.39-.49,0-.69-.23-.6-.71.02-.16.31-.61.86-1.35l4.22-5.77c.58-.8.93-1.52,1.04-2.15.21-1.22-.21-1.83-1.27-1.83-1.25,0-3.17,1.11-5.78,3.34l2.42-3.83c-.2.11-.48.33-.82.66-.35.34-.57.51-.66.51-.14,0-.31-.06-.51-.16-.2-.11-.41-.16-.64-.16-.39,0-.79.32-1.2.95l-1.29,2.04c-1.61,1.46-3.07,2.49-4.39,3.13-.48.24-.86.39-1.12.44.24-.45.49-.9.76-1.35.32-.64.53-1.25.63-1.83.18-1.06.07-1.95-.33-2.67-.41-.71-1.01-1.07-1.82-1.07-1.94,0-3.89.91-5.86,2.72-1.97,1.82-3.15,3.86-3.54,6.11-.17.95-.07,1.79.28,2.51.37.79.95,1.19,1.73,1.19,1.43,0,2.99-.64,4.67-1.91,1.27-.96,2.29-1.99,3.07-3.1.73-.24,1.28-.44,1.66-.6,1.39-.81,2.56-1.59,3.48-2.34l-5.31,8.43c.81-.8,1.31-1.2,1.49-1.2.12,0,.31.06.58.18.26.12.48.18.64.18.32,0,.78-.46,1.38-1.37.6-.92,1.21-1.85,1.84-2.81,1.54-2.22,3.05-3.99,4.53-5.29,1.22-1.06,2.12-1.59,2.7-1.59.35,0,.5.12.46.36-.05.23-.28.63-.72,1.18l-3.75,5.05c-.68.93-1.06,1.74-1.14,2.44-.16,1.62.36,2.43,1.59,2.43,1.08,0,2.39-.81,3.92-2.43,3.78-3.95,5.96-6.25,6.53-6.89l-.23-.28ZM48.26,17.76c-.24,1.35-1,3.13-2.28,5.33-.67-.13-1.04-.53-1.11-1.19.64-.08.99-.35,1.07-.8.1-.56-.09-.83-.58-.83-.71,0-1.15.42-1.3,1.28-.14.82.38,1.47,1.57,1.95-2.24,3.23-3.96,4.84-5.17,4.84-.44,0-.59-.45-.43-1.36.26-1.46,1.33-3.53,3.23-6.2,1.89-2.68,3.34-4.01,4.34-4.01.55,0,.77.33.66.99h0Z"/>
  <path class="st1" d="M73.91,10.44c1.02-2.56,3.35-3.02,5.2-3.02,1.34,0,3.45.2,6.34.6,1.46-4.11,4-6.17,7.62-6.17,1.27,0,2.28.48,3.02,1.43.74.95,1.01,2.07.78,3.34-.19,1.11-.83,2.1-1.9,2.96-1.07.86-2.23,1.29-3.48,1.29-.97,0-2.1-.31-3.41-.91-.06.45-.1.87-.12,1.27-.02.9.05,1.55.21,1.95.05.11.26.28.64.52.37.24.54.5.48.8-.05.27-.21.42-.5.48-.48.08-.88-.23-1.22-.91-.41-.29-.9-.44-1.48-.44-1.36,0-2.73.68-4.09,2.03-1.5,1.46-2.43,3.22-2.79,5.29-.38,2.15-.16,3.99.66,5.53s2,2.31,3.54,2.31c2.12,0,4.12-.88,5.98-2.62,1.86-1.75,3-3.81,3.42-6.17.22-1.25.12-2.26-.3-3.04s-1.09-1.17-2.01-1.17c-1.41,0-2.82.68-4.24,2.05s-2.25,2.78-2.51,4.24c-.16.9-.05,1.66.31,2.27.37.61.88.91,1.55.91,1.48,0,2.68-.94,3.61-2.82.53-1.06.92-2.31,1.17-3.74h.42c-.18,1.57-.63,3-1.34,4.3-1.02,1.88-2.34,2.82-3.96,2.82-.83,0-1.46-.36-1.89-1.09s-.55-1.61-.37-2.64c.29-1.64,1.2-3.2,2.74-4.65,1.54-1.46,3.06-2.19,4.59-2.19,1.04,0,1.81.44,2.31,1.33.5.89.63,2.04.38,3.44-.45,2.6-1.68,4.83-3.68,6.7-2,1.87-4.11,2.81-6.32,2.81-2.79,0-4.85-.85-6.17-2.55-1.22-1.59-1.6-3.69-1.15-6.3.45-2.55,1.54-4.65,3.28-6.3,1.9-1.78,4.17-2.55,6.81-2.31-.27-.69-.46-1.45-.57-2.27-.08-.74-.13-1.13-.14-1.16-2.32-.48-4.43-.72-6.32-.72-1.78,0-3.55.38-4.71,2.67l-.39-.13v-.02ZM96.46,6.62c.16-.93,0-1.72-.5-2.39-.5-.66-1.17-.99-2.02-.99-1.27,0-2.52.61-3.75,1.83-1.1,1.14-1.75,2.25-1.94,3.34-.06.32-.06.58,0,.8.97.8,2.08,1.19,3.32,1.19s2.35-.35,3.25-1.05c.9-.7,1.44-1.61,1.64-2.73h0Z"/>
  <path class="st1" d="M126.12,10.72c-.2-.27-.47-.4-.82-.4-.46,0-.9.21-1.33.62s-.7.89-.79,1.45c-.08.42-.02.79.19,1.09.2.31.48.46.85.46.44,0,.87-.23,1.3-.69.43-.47.69-.99.79-1.58.07-.37,0-.69-.19-.95Z"/>
  <path class="st1" d="M145.55,19.27c-1.14,1.62-2.82,3.4-5.05,5.33-2.78,2.39-4.92,3.58-6.45,3.58-.62,0-.85-.49-.67-1.47.14-.82.51-1.75,1.11-2.78,1.1,0,2.52-.43,4.23-1.28,2.3-1.11,3.59-2.5,3.89-4.17.1-.61,0-1.13-.32-1.55-.32-.43-.74-.64-1.27-.64-1.58,0-3.36.79-5.37,2.39-1.64,1.33-2.81,2.81-3.51,4.45-.62.78-1.26,1.51-1.91,2.19-1.72,1.78-3.03,2.66-3.93,2.66-.49,0-.67-.31-.56-.95.2-1.17.84-2.76,1.91-4.77.79-1.38,1.59-2.78,2.39-4.18,3.45-2.07,6.47-4.81,9.06-8.23,2.06-2.71,3.24-4.86,3.55-6.45.06-.37.01-.7-.16-.99-.17-.3-.39-.44-.67-.44-1.01,0-2.93,1.52-5.76,4.55-2.83,3.04-5.43,6.33-7.81,9.89-.95,1.41-1.76,2.71-2.41,3.89-1.01,1.08-2.25,2.33-3.73,3.75-2.7,2.62-4.33,3.93-4.88,3.93s-.77-.34-.65-1.03c.09-.5.29-1.01.61-1.51l6.08-9.63c-.15.06-.42.27-.8.64-.39.37-.63.55-.72.55-.12,0-.24-.05-.35-.17-.12-.12-.38-.18-.77-.18s-.73.28-1.08.83c-.56.83-1.11,1.66-1.66,2.48-1.47,1.29-2.82,2.22-4.04,2.81-.48.24-.85.39-1.12.44.24-.45.5-.9.76-1.35.32-.64.53-1.25.63-1.83.19-1.06.08-1.95-.33-2.67-.41-.71-1.01-1.07-1.82-1.07-1.94,0-3.89.91-5.86,2.72-.8.74-1.47,1.51-1.99,2.32-.02.01-.03.02-.02.03-1.01,1.18-1.83,2.14-2.47,2.88-.73.88-1.6,1.69-2.61,2.43-1.15.88-2.05,1.31-2.7,1.31-.23,0-.41-.18-.55-.53-.13-.36-.17-.69-.12-.98.06-.34.45-1.04,1.17-2.11l4.88-7.24h2.61l.31-.59h-2.59l4.73-7.04h-.39c-1.68,2.25-2.93,3.8-3.73,4.63-.8.84-1.79,1.64-2.97,2.41h-2.8l-.66.59h2.56l-3.84,6.33c-.68,1.11-1.08,2.03-1.21,2.74-.12.72-.05,1.34.22,1.85.27.52.65.78,1.16.78,2.22,0,4.49-1.42,6.84-4.26.41-.47.8-.91,1.18-1.34-.26.61-.44,1.25-.55,1.9-.17.95-.07,1.79.29,2.51.37.79.94,1.19,1.73,1.19,1.43,0,2.98-.64,4.66-1.91,1.27-.96,2.29-1.99,3.07-3.1.73-.24,1.29-.44,1.66-.6,1.22-.71,2.26-1.39,3.12-2.06-.17.25-.33.5-.5.75-1.19,1.88-1.88,3.39-2.08,4.53-.27,1.59.3,2.39,1.73,2.39s4.38-2.44,8.94-7.31c-.79,1.57-1.27,2.89-1.46,3.97-.19,1.03-.14,1.86.13,2.48.27.63.73.91,1.36.86,1.54-.11,3.15-1,4.83-2.67.53-.53,1.09-1.16,1.7-1.91-.09.33-.17.66-.23,1-.17.98-.05,1.8.37,2.46.44.75,1.13,1.12,2.05,1.12,1.69,0,3.97-1.3,6.85-3.9,2.21-1.96,3.87-3.75,4.99-5.37l-.23-.28h0ZM140.45,16.77c.48,0,.67.3.56.92-.14.8-.92,1.87-2.36,3.2-1.51,1.39-2.73,2.08-3.65,2.08,2.52-4.14,4.34-6.2,5.45-6.2h0ZM136.37,8.01c2.38-3.47,3.85-5.21,4.41-5.21.32,0,.43.28.33.84-.22,1.27-1.34,3.34-3.36,6.21-2.34,3.31-4.59,5.62-6.75,6.92,1.24-2.5,3.03-5.41,5.37-8.76ZM112.44,17.76c-.24,1.35-1,3.13-2.28,5.33-.67-.13-1.04-.53-1.11-1.19.64-.08,1-.35,1.07-.8.1-.56-.09-.83-.58-.83-.71,0-1.14.42-1.29,1.28-.15.82.37,1.47,1.56,1.95-2.24,3.23-3.96,4.84-5.17,4.84-.44,0-.58-.45-.43-1.36.26-1.46,1.33-3.53,3.23-6.2,1.89-2.68,3.34-4.01,4.34-4.01.55,0,.78.33.66.99h0Z"/>
  <path class="st1" d="M190.18,4c-1.6.03-3.02.27-4.28.72-2.04.72-3.99,2.2-5.83,4.46-1.38,1.67-2.62,3.63-3.73,5.89-.8,1.67-1.25,2.77-1.34,3.3-.02.13.52-.09,1.62-.68,1.11-.58,1.94-1.15,2.5-1.71.84-.85,1.76-2.37,2.77-4.57l.28.16c-.04.24-.34.87-.89,1.91-.71,1.3-1.38,2.27-2,2.9-1.32,1.35-2.83,2.21-4.54,2.59-1.72,3.66-3.77,6.32-6.14,8-2.26,1.59-4.96,2.39-8.1,2.39-2.52,0-4.56-.84-6.14-2.51-1.97-2.07-2.62-5.04-1.94-8.91.01-1.25.15-2.67.43-4.26.61-3.47,2.22-6.44,4.85-8.91,2.48-2.33,5.06-3.5,7.71-3.5,1.27,0,2.38.29,3.34.87l-.13.36c-1.08-.58-2.18-.88-3.31-.88-2.49,0-4.95,1.11-7.37,3.34-2.59,2.41-4.18,5.32-4.78,8.71-.12.66-.19,1.62-.22,2.86.72-1.72,1.58-3.2,2.61-4.42,2.45-2.94,5.45-4.42,8.98-4.42,2.01,0,3.72.72,5.13,2.15.73-1.57,1.79-2.96,3.15-4.18,2.82-2.52,6.4-3.78,10.74-3.78,1.32,0,2.65.16,4,.48,1.2.26,2.04.57,2.51.92.08.08.12.19.12.32-.02.24-.02.37,0,.4h0ZM171.73,18.99c-.3-.13-.78-.48-1.44-1.03-2.51,5.38-6.02,8.09-10.54,8.11-2.49.03-4.37-1.05-5.62-3.22-.41-.72-.88-2.11-1.41-4.18-.39,3.54.33,6.21,2.16,8,1.45,1.45,3.36,2.18,5.74,2.18,1.38,0,3.22-.98,5.52-2.93,2.39-2.06,4.26-4.37,5.6-6.94h0ZM170.03,17.64c-.58-1.19-.88-2.4-.92-3.62-.03-.88.08-2.12.34-3.74-1.24-1.49-2.9-2.23-4.98-2.23-5.29,0-9.14,3.2-11.58,9.59.21,1.56.58,2.9,1.1,4.02,1.26,2.71,3.19,4.06,5.8,4.06,2.88,0,5.37-1.19,7.45-3.58.75-.88,1.68-2.37,2.79-4.49h0ZM170.18,16.77c.08-.61.16-1.51.23-2.7-.03-1.27-.25-2.39-.66-3.34-.1.69-.18,1.75-.24,3.18.02.69.24,1.64.68,2.86h-.01ZM189.59,3.76c-.09-.26-.71-.58-1.84-.95-1.34-.4-2.76-.6-4.26-.6-2.95,0-5.63.68-8.04,2.03-2.56,1.46-4.4,3.45-5.51,5.97.17.45.35.9.53,1.35.2.72.3,1.52.3,2.43-.01.74-.12,1.9-.33,3.46.34.32.84.68,1.51,1.07,1.35-2.73,2.32-4.56,2.9-5.49,2.01-3.18,4.23-5.58,6.66-7.2,1.07-.72,2.15-1.21,3.23-1.47,1.08-.26,2.7-.46,4.85-.6h0Z"/>
  <path class="st1" d="M265.77,10.72c-.2-.27-.47-.4-.82-.4-.46,0-.9.21-1.33.62s-.7.89-.8,1.45c-.07.42,0,.79.19,1.09.21.31.49.46.86.46.44,0,.87-.23,1.3-.69.43-.47.69-.99.79-1.58.07-.37,0-.69-.19-.95Z"/>
  <path class="st1" d="M323.02,2.41c-.17-.3-.39-.44-.66-.44-1.02,0-2.94,1.52-5.77,4.55-2.83,3.04-5.43,6.33-7.8,9.89-.98,1.46-1.81,2.79-2.47,4-1.64,1.78-3.3,3.42-4.98,4.91-2.18,1.93-3.57,2.9-4.17,2.9-.51,0-.72-.26-.63-.79.07-.37.37-.98.91-1.83l6.25-9.79c-.13.06-.36.25-.69.58-.34.33-.55.5-.64.5-.14,0-.38-.04-.71-.12s-.56-.12-.7-.12c-.21,0-.49.2-.84.59-.28-.63-.81-.95-1.59-.95-2.13,0-4.16.98-6.09,2.94-.47.48-.89.96-1.25,1.45l-4.84,5.03c-1.52,1.59-2.62,2.39-3.29,2.39-.48,0-.68-.23-.6-.71.03-.16.32-.61.86-1.35l4.23-5.77c.58-.8.92-1.52,1.03-2.15.22-1.22-.21-1.83-1.27-1.83-1.24,0-3.17,1.11-5.77,3.34l2.41-3.83c-.2.11-.47.33-.82.66-.34.34-.56.51-.65.51-.14,0-.31-.06-.51-.16-.2-.11-.42-.16-.65-.16-.39,0-.79.32-1.2.95l-1.29,2.05c-1.6,1.45-3.06,2.48-4.39,3.12-.48.24-.85.39-1.11.44.23-.45.49-.9.75-1.35.32-.64.53-1.25.63-1.83.19-1.06.08-1.95-.33-2.67-.4-.71-1.01-1.07-1.82-1.07-1.94,0-3.89.91-5.86,2.72-.56.52-1.05,1.05-1.48,1.61-.09.08-.19.18-.29.28-.9.94-1.96,1.98-3.17,3.15-2.7,2.62-4.33,3.93-4.88,3.93s-.77-.34-.65-1.03c.09-.5.29-1.01.61-1.51l6.08-9.63c-.15.06-.42.27-.8.64-.39.37-.63.55-.72.55-.12,0-.24-.05-.35-.17-.12-.12-.38-.18-.77-.18s-.73.28-1.08.83c-.75,1.12-1.49,2.23-2.22,3.33l-.03.03c-1.19,1.42-2.16,2.55-2.89,3.4-.73.88-1.61,1.69-2.62,2.43-1.15.88-2.04,1.31-2.69,1.31-.23,0-.42-.18-.55-.53-.14-.36-.18-.69-.13-.98.06-.34.45-1.04,1.17-2.11l4.89-7.24h2.6l.32-.59h-2.6l4.73-7.04h-.38c-1.69,2.25-2.93,3.8-3.74,4.63-.8.84-1.79,1.64-2.96,2.41h-2.81l-.65.59h2.56l-1.8,2.97h0c-1.74,1.91-3.5,3.65-5.27,5.23-2.18,1.93-3.58,2.9-4.18,2.9-.5,0-.71-.26-.62-.79.07-.37.37-.98.91-1.83l6.25-9.79c-.13.06-.36.25-.69.58-.34.33-.55.5-.65.5-.13,0-.37-.04-.7-.12s-.57-.12-.71-.12c-.21,0-.48.2-.83.59-.28-.63-.81-.95-1.6-.95-2.12,0-4.15.98-6.09,2.94-.48.49-.9.98-1.27,1.48l-4.82,5c-1.52,1.59-2.61,2.39-3.28,2.39-.49,0-.69-.23-.6-.71.03-.16.31-.61.86-1.35l4.23-5.77c.57-.8.92-1.52,1.03-2.15.21-1.22-.21-1.83-1.27-1.83-1.25,0-3.17,1.11-5.78,3.34l2.42-3.83c-.2.11-.48.33-.82.66-.35.34-.57.51-.66.51-.14,0-.31-.06-.51-.16-.2-.11-.41-.16-.64-.16-.39,0-.79.32-1.2.95l-1.59,2.52c-4.1,5.16-7.02,7.75-8.76,7.75-.6,0-.83-.36-.71-1.08.04-.24.36-.78.94-1.63l3.68-5.37c.65-.96,1.01-1.6,1.07-1.95.07-.42.02-.79-.16-1.09-.18-.31-.44-.46-.78-.46-.4,0-.94.25-1.62.75-.24.19-1.08.85-2.5,1.99.99-1.06,1.56-1.97,1.69-2.74.11-.61-.11-.92-.67-.92-.46,0-.97.34-1.53,1.02-.55.67-.89,1.34-1,2.01-.16.88-.03,1.37.4,1.48-1.12,1.46-2.66,3.03-4.61,4.72-2.77,2.39-4.91,3.58-6.44,3.58-.62,0-.85-.49-.67-1.47.14-.82.51-1.75,1.11-2.78,1.1,0,2.52-.43,4.23-1.28,2.3-1.11,3.59-2.5,3.88-4.17.11-.61,0-1.13-.31-1.55-.32-.43-.75-.64-1.28-.64-1.57,0-3.35.79-5.36,2.39-1.05.85-1.9,1.76-2.56,2.73-.97,1.16-1.78,2.1-2.41,2.83-.73.88-1.61,1.69-2.62,2.43-1.15.88-2.05,1.31-2.69,1.31-.23,0-.42-.18-.55-.53-.14-.36-.18-.69-.13-.98.06-.34.45-1.04,1.17-2.11l4.89-7.24h2.6l.32-.59h-2.6l4.73-7.04h-.38c-1.69,2.25-2.93,3.8-3.74,4.63-.8.84-1.79,1.64-2.96,2.41h-2.81l-.65.59h2.56l-1.62,2.67-5.71,5.92c-1.52,1.59-2.62,2.39-3.28,2.39-.49,0-.69-.23-.6-.71.02-.16.31-.61.86-1.35l4.22-5.77c.58-.8.93-1.52,1.04-2.15.21-1.22-.21-1.83-1.27-1.83-1.25,0-3.17,1.11-5.78,3.34l2.42-3.83c-.21.11-.48.33-.82.66-.35.34-.57.51-.66.51-.14,0-.31-.06-.51-.16-.2-.11-.41-.16-.64-.16-.39,0-.79.32-1.2.95l-7.38,11.7c.81-.8,1.31-1.2,1.49-1.2.12,0,.31.06.58.18.26.12.48.18.64.18.32,0,.78-.46,1.38-1.37.6-.92,1.21-1.85,1.84-2.81,1.54-2.22,3.05-3.99,4.53-5.29,1.22-1.06,2.12-1.59,2.7-1.59.34,0,.5.12.46.36-.05.23-.28.63-.72,1.18l-3.75,5.05c-.68.93-1.06,1.74-1.14,2.44-.16,1.62.36,2.43,1.59,2.43,1.08,0,2.39-.81,3.92-2.43,2.12-2.22,3.74-3.91,4.85-5.09l-1.28,2.11c-.68,1.11-1.09,2.03-1.21,2.74-.13.72-.05,1.34.21,1.85.27.52.66.78,1.16.78,2.22,0,4.5-1.42,6.84-4.26.38-.43.74-.84,1.08-1.24-.24.62-.42,1.26-.54,1.92-.17.98-.05,1.8.37,2.46.44.75,1.13,1.12,2.05,1.12,1.69,0,3.97-1.3,6.85-3.9,2.06-1.83,3.65-3.51,4.74-5.04.39-.05.77-.25,1.15-.59.47-.41.81-.61,1.01-.61.09,0,.12.09.09.27-.05.32-.73,1.4-2.03,3.23s-2,3.06-2.09,3.7c-.29,1.96.16,2.94,1.36,2.94,1.34,0,2.72-.56,4.13-1.67,1.17-.92,2.54-2.31,4.1-4.18l-3.99,6.33c.81-.8,1.31-1.2,1.49-1.2.12,0,.31.06.58.18.26.12.48.18.64.18.32,0,.78-.46,1.38-1.37.6-.92,1.21-1.85,1.84-2.81,1.55-2.22,3.06-3.99,4.53-5.29,1.22-1.06,2.12-1.59,2.7-1.59.35,0,.5.12.46.36-.04.23-.28.63-.72,1.18l-3.75,5.05c-.68.93-1.06,1.74-1.13,2.44-.17,1.62.36,2.43,1.58,2.43,1.08,0,2.39-.81,3.92-2.43,1.56-1.62,2.84-2.97,3.85-4.04-.41.81-.69,1.64-.84,2.49-.46,2.63.09,3.94,1.66,3.94,1.18,0,2.41-.78,3.7-2.35.35,1.57,1.09,2.35,2.22,2.35,1.48,0,4.42-2.39,8.82-7.16l-1.09,1.79c-.68,1.11-1.09,2.03-1.21,2.74-.13.72-.05,1.34.21,1.85.27.52.66.78,1.16.78,2.22,0,4.5-1.42,6.84-4.26.34-.39.67-.77.99-1.13-.65,1.19-1.04,2.19-1.18,3-.27,1.59.3,2.39,1.73,2.39,1.32,0,4.08-2.2,8.27-6.59-.5.92-.84,1.88-1.01,2.89-.17.95-.07,1.79.29,2.51.37.79.94,1.19,1.73,1.19,1.43,0,2.98-.64,4.66-1.91,1.27-.96,2.3-1.99,3.07-3.1.73-.24,1.29-.44,1.66-.6,1.4-.81,2.56-1.59,3.49-2.34l-5.31,8.43c.81-.8,1.3-1.2,1.49-1.2.11,0,.3.06.57.18s.48.18.64.18c.33,0,.79-.46,1.39-1.37.6-.92,1.21-1.85,1.84-2.81,1.54-2.22,3.05-3.99,4.52-5.29,1.23-1.06,2.13-1.59,2.7-1.59.35,0,.5.12.46.36-.04.23-.28.63-.71,1.18l-3.75,5.05c-.69.93-1.06,1.74-1.14,2.44-.17,1.62.36,2.43,1.58,2.43,1.09,0,2.39-.81,3.92-2.43,1.57-1.62,2.85-2.97,3.86-4.04-.42.81-.7,1.64-.85,2.49-.46,2.63.1,3.94,1.66,3.94,1.18,0,2.42-.78,3.7-2.35.35,1.57,1.09,2.35,2.22,2.35,1.48,0,4.41-2.38,8.79-7.13-.73,1.49-1.2,2.75-1.38,3.79-.18,1.03-.14,1.86.14,2.48.27.63.72.91,1.35.86,1.54-.11,3.15-1,4.83-2.67,1.4-1.4,3.09-3.6,5.07-6.6l-.23-.28c-1.47,2.34-3.02,4.35-4.66,6.05-1.72,1.78-3.03,2.66-3.93,2.66-.48,0-.67-.31-.56-.95.21-1.17.84-2.76,1.91-4.77.8-1.38,1.59-2.78,2.39-4.18,3.46-2.07,6.48-4.81,9.06-8.23,2.06-2.71,3.25-4.86,3.55-6.45.06-.37.01-.7-.16-.99h-.01ZM206.71,16.77c.48,0,.67.3.56.92-.14.8-.93,1.87-2.36,3.2-1.51,1.39-2.73,2.08-3.65,2.08,2.52-4.14,4.34-6.2,5.45-6.2h0ZM211.54,18.4c.07-.4.32-.9.73-1.51.42-.61.79-.92,1.12-.92.2,0,.29.12.25.36-.1.53-.71,1.44-1.83,2.74-.26,0-.35-.22-.27-.67h0ZM237.39,25.6c-1.21,1.75-2.27,2.62-3.19,2.62-.47,0-.62-.44-.47-1.31.25-1.41,1.25-3.34,2.99-5.81,1.96-2.73,3.61-4.1,4.98-4.1.48,0,.67.32.56.96-.09.48-1.71,3.02-4.87,7.64ZM273.03,17.76c-.23,1.35-1,3.13-2.28,5.33-.67-.13-1.04-.53-1.11-1.19.64-.08,1-.35,1.08-.8.09-.56-.1-.83-.58-.83-.72,0-1.15.42-1.3,1.28-.15.82.38,1.47,1.56,1.95-2.24,3.23-3.96,4.84-5.17,4.84-.44,0-.58-.45-.42-1.36.25-1.46,1.33-3.53,3.22-6.2,1.9-2.68,3.34-4.01,4.34-4.01.56,0,.78.33.66.99ZM294.61,25.6c-1.2,1.75-2.27,2.62-3.19,2.62-.46,0-.62-.44-.46-1.31.24-1.41,1.24-3.34,2.99-5.81,1.95-2.73,3.61-4.1,4.97-4.1.48,0,.67.32.56.96-.08.48-1.71,3.02-4.87,7.64ZM321.65,3.64c-.22,1.27-1.35,3.34-3.37,6.21-2.34,3.31-4.59,5.62-6.75,6.92,1.24-2.5,3.03-5.41,5.37-8.76,2.39-3.47,3.86-5.21,4.41-5.21.32,0,.44.28.34.84Z"/>
  <path class="st0" d="M51.53,45.3v.82h.04c.73-.9,1.78-1.06,2.41-1.06,1.79,0,3.28.99,3.28,3.22s-1.59,3.22-3.26,3.22c-.29,0-1.75-.06-2.4-1.09v3.03h-1.26v-8.14h1.19ZM53.79,50.78c1.02,0,2.15-.59,2.15-2.49,0-1.54-.79-2.49-2.22-2.49-.65,0-2.18.26-2.18,2.51,0,1.84,1.29,2.47,2.25,2.47h0Z"/>
  <path class="st0" d="M71.97,49.55c-.19.85-.95,1.96-3.18,1.96-3.61,0-3.69-2.66-3.69-3.2,0-.82.19-3.24,3.56-3.24,2.91,0,3.3,1.87,3.37,3.16,0,.09,0,.2,0,.29h-5.61c0,1.02.65,2.26,2.31,2.26,1.22,0,1.86-.58,2.02-1.23h1.21ZM70.71,47.8c-.04-.8-.37-2-2.02-2-1.86,0-2.25,1.25-2.25,2h4.27Z"/>
  <path class="st0" d="M84.37,45.8c-1.69.06-2.68.59-2.8,2.09,0,.11,0,.21,0,.32v3.07h-1.26v-5.97h1.26v1.15h.03c.34-.88,1.39-1.34,2.41-1.37h.37v.72h0Z"/>
  <path class="st0" d="M95.78,46.03h-1.59v5.24h-1.26v-5.24h-1.35v-.73h1.35v-.81c0-1.03.62-1.49,1.92-1.49.27,0,.72.04.93.05v.73c-.62-.04-.76-.01-.89-.01-.69,0-.7.58-.7.82v.72h1.59v.73h0Z"/>
  <path class="st0" d="M108.49,51.27v-.85h-.03c-.73,1.03-2.21,1.08-2.47,1.08-2.15,0-2.4-1.35-2.4-2.24v-3.96h1.26v3.65c0,1.5.63,1.82,1.53,1.82,2.12,0,2.09-1.8,2.09-2.22v-3.25h1.26v5.97h-1.26.02Z"/>
  <path class="st0" d="M119.68,45.3v.88c.37-.69,1.33-1.12,2.24-1.12,1.26,0,1.89.66,2.08,1.28.26-.46,1.02-1.28,2.52-1.28,2.24,0,2.34,1.69,2.34,2.35v3.85h-1.26v-3.78c0-.62-.1-1.69-1.41-1.69-.86,0-1.92.38-1.92,1.92v3.56h-1.26v-3.77c0-.87-.26-1.7-1.41-1.7-1.05,0-1.92.74-1.92,1.92v3.56h-1.26v-5.97h1.26Z"/>
  <path class="st0" d="M143.98,49.55c-.19.85-.95,1.96-3.18,1.96-3.61,0-3.69-2.66-3.69-3.2,0-.82.19-3.24,3.56-3.24,2.91,0,3.3,1.87,3.37,3.16,0,.09.01.2.01.29h-5.61c0,1.02.65,2.26,2.31,2.26,1.22,0,1.86-.58,2.02-1.23h1.21ZM142.72,47.8c-.04-.8-.37-2-2.02-2-1.86,0-2.25,1.25-2.25,2h4.27Z"/>
  <path class="st0" d="M168.55,49.15c-.07.71-.57,2.36-3.17,2.36-.73,0-3.56-.08-3.56-3.27,0-1.39.65-3.17,3.47-3.17,2.05,0,3.04.99,3.2,2.1h-1.21c-.27-1.33-1.52-1.38-1.96-1.38-1.58,0-2.17,1.09-2.17,2.44s.65,2.54,2.25,2.54c1.43,0,1.89-.98,1.94-1.63h1.21Z"/>
  <path class="st0" d="M179.86,45.07c2.65,0,3.59,1.63,3.59,3.22s-.93,3.22-3.59,3.22-3.58-1.63-3.58-3.22.93-3.22,3.58-3.22ZM179.86,50.78c.56,0,2.25-.11,2.25-2.5s-1.69-2.5-2.25-2.5-2.25.11-2.25,2.5,1.69,2.5,2.25,2.5Z"/>
  <path class="st0" d="M192.96,45.3v.88c.37-.69,1.33-1.12,2.24-1.12,1.26,0,1.89.66,2.08,1.28.26-.46,1.02-1.28,2.52-1.28,2.24,0,2.34,1.69,2.34,2.35v3.85h-1.26v-3.78c0-.62-.1-1.69-1.41-1.69-.86,0-1.92.38-1.92,1.92v3.56h-1.26v-3.77c0-.87-.26-1.7-1.41-1.7-1.05,0-1.92.74-1.92,1.92v3.56h-1.26v-5.97h1.26Z"/>
  <path class="st0" d="M211.98,45.3v.82h.04c.73-.9,1.78-1.06,2.41-1.06,1.79,0,3.29.99,3.29,3.22s-1.59,3.22-3.26,3.22c-.29,0-1.75-.06-2.4-1.09v3.03h-1.26v-8.14h1.18ZM214.23,50.78c1.02,0,2.15-.59,2.15-2.49,0-1.54-.79-2.49-2.22-2.49-.65,0-2.18.26-2.18,2.51,0,1.84,1.29,2.47,2.25,2.47h0Z"/>
  <path class="st0" d="M225.72,47.07c0-.8.52-2,3.1-2,1.18,0,2.94.27,2.9,2.01l-.07,2.76c0,.46-.01.74.76.71v.73c-.17.04-.3.05-.57.05-.72,0-1.15-.09-1.31-.87-.5.75-1.51,1.06-2.5,1.06-1.53,0-2.57-.54-2.57-1.8,0-1.03.65-1.67,3.57-1.89,1.08-.06,1.42-.05,1.42-.82,0-.28-.03-1.2-1.64-1.2-.46,0-1.94.02-1.89,1.27h-1.21.01ZM230.45,48.22c-.37.25-.8.2-1.61.29-1.12.15-2.08.2-2.08,1.16,0,.71.59,1.1,1.41,1.1.99,0,2.14-.4,2.25-2.06l.03-.5h0Z"/>
  <path class="st0" d="M241.76,45.3v.83c.5-.6,1.35-1.07,2.5-1.07,1.91,0,2.39,1.05,2.39,2.23v3.97h-1.26v-3.65c0-.63.03-1.82-1.54-1.82-.69,0-2.09.25-2.09,2.22v3.25h-1.26v-5.97h1.26Z"/>
  <path class="st0" d="M255.58,52.67c.39.05.52.06.63.06.75,0,.92-.48,1.15-1.01l.17-.45-3.16-5.97h1.51l2.34,4.83,1.94-4.83h1.26l-2.9,6.67c-.23.56-.53,1.52-1.91,1.52-.4,0-.76-.01-1.03-.06v-.76h0Z"/>
</svg>